<?xml version="1.0" standalone="no"?>
<!DOCTYPE svg PUBLIC "-//W3C//DTD SVG 20010904//EN"
 "http://www.w3.org/TR/2001/REC-SVG-20010904/DTD/svg10.dtd">
<svg version="1.0" xmlns="http://www.w3.org/2000/svg"
 width="50.000000pt" height="50.000000pt" viewBox="0 0 856.000000 1280.000000"
 preserveAspectRatio="xMidYMid meet">
<metadata>
Created by potrace 1.15, written by Peter Selinger 2001-2017
</metadata>
<g transform="translate(0.000000,1280.000000) scale(0.100000,-0.100000)"
fill="#000000" stroke="none">
<path d="M3910 12794 c-68 -13 -163 -50 -240 -94 -75 -42 -94 -48 -160 -53
-119 -9 -175 -31 -235 -90 -43 -43 -57 -67 -83 -142 -53 -150 -44 -141 -179
-164 -126 -20 -225 -94 -310 -228 -35 -57 -50 -73 -68 -73 -13 0 -72 16 -131
36 -95 32 -116 36 -188 32 -104 -4 -154 -29 -255 -126 -116 -112 -106 -108
-203 -82 -219 59 -408 -51 -478 -277 -24 -80 -25 -143 -3 -250 21 -100 13
-120 -62 -169 -27 -18 -70 -59 -95 -92 -48 -65 -83 -89 -170 -117 -154 -50
-290 -147 -339 -242 -36 -71 -60 -181 -67 -305 -4 -65 -12 -125 -18 -132 -6
-8 -50 -26 -97 -40 -248 -74 -294 -246 -125 -474 25 -34 46 -68 46 -75 0 -6
-9 -25 -21 -42 -113 -166 -137 -352 -71 -549 18 -56 25 -89 18 -91 -6 -1 -29
-8 -51 -14 -71 -19 -147 -72 -180 -125 -25 -41 -30 -62 -34 -124 -5 -98 18
-178 81 -288 27 -47 48 -87 46 -88 -2 -1 -23 -9 -48 -17 -92 -29 -176 -122
-187 -208 -12 -87 92 -233 174 -246 51 -8 102 -35 125 -65 29 -40 -25 231 509
-2565 159 -836 364 -1909 455 -2385 90 -476 172 -886 180 -912 23 -70 74 -111
181 -143 177 -53 653 -208 848 -276 332 -115 182 -104 1435 -104 l1095 0 611
192 c337 106 625 198 640 204 65 24 96 72 118 180 16 78 57 290 205 1044 89
454 456 2325 551 2810 27 138 72 367 100 510 28 143 82 406 121 585 128 592
164 796 176 985 6 110 -7 175 -53 267 -15 29 -24 65 -24 93 0 54 -20 107 -47
126 -31 22 -34 59 -12 150 33 133 30 273 -11 494 -30 161 -34 199 -34 365 -1
181 -2 186 -29 241 -15 31 -73 119 -128 195 -119 164 -153 220 -176 292 -22
67 -64 106 -141 128 -104 30 -119 65 -87 199 20 80 19 241 -1 319 -27 106 -72
184 -154 267 -110 111 -216 163 -393 195 -44 7 -86 19 -93 25 -11 9 -14 42
-14 133 0 195 -39 313 -137 413 -57 59 -145 106 -232 124 -34 7 -103 10 -173
7 l-118 -5 0 122 c0 237 -69 395 -224 511 -226 170 -442 174 -665 12 -36 -26
-70 -48 -76 -48 -6 0 -42 32 -80 72 -128 131 -242 186 -400 193 -49 2 -101 1
-115 -1z"/>
<path d="M7163 2109 c-29 -11 -74 -40 -100 -65 l-48 -45 39 5 38 5 -63 -67
c-35 -37 -70 -76 -77 -87 -10 -15 -12 -16 -8 -3 7 23 -21 50 -47 46 -15 -2
-30 -27 -60 -103 -39 -96 -41 -105 -45 -233 -5 -152 -6 -154 -100 -172 -73
-13 -114 -33 -160 -75 -55 -49 -85 -113 -84 -178 1 -63 13 -98 52 -147 42 -53
70 -118 70 -166 0 -26 -13 -67 -39 -120 -62 -129 -75 -231 -47 -365 30 -140
111 -251 220 -303 160 -76 304 -25 460 163 66 80 69 83 105 78 20 -3 63 -15
96 -28 79 -30 267 -33 329 -6 67 30 107 67 133 125 33 71 27 132 -19 209 -32
54 -178 203 -198 203 -17 0 -11 36 8 53 25 23 31 22 114 -22 98 -53 166 -71
263 -71 147 0 270 53 381 164 179 179 232 453 135 701 -68 176 -192 300 -344
347 -58 17 -86 20 -170 15 -113 -5 -200 -31 -312 -90 l-64 -34 -28 56 c-42 83
-144 183 -216 210 -72 26 -145 26 -214 0z"/>
</g>
</svg>
